<svg width="249" height="287" viewBox="0 0 249 287" fill="none" xmlns="http://www.w3.org/2000/svg">
<path d="M149.161 70.3942H147.856V34.6687C147.856 31.9533 147.322 29.2645 146.283 26.7558C145.244 24.2471 143.721 21.9675 141.801 20.0474C139.881 18.1272 137.601 16.6041 135.093 15.5648C132.584 14.5256 129.895 13.9907 127.18 13.9906H51.4901C46.0062 13.9906 40.7469 16.1691 36.8692 20.0468C32.9915 23.9245 30.813 29.1838 30.813 34.6677V230.662C30.813 236.146 32.9915 241.405 36.8692 245.283C40.7469 249.16 46.0062 251.339 51.4901 251.339H127.18C132.664 251.339 137.923 249.16 141.801 245.283C145.679 241.405 147.857 236.146 147.857 230.662V95.8243H149.162L149.161 70.3942Z" fill="#3F3D56"/>
<path d="M143.456 34.8129V230.518C143.456 234.613 141.829 238.541 138.933 241.437C136.037 244.333 132.109 245.96 128.014 245.96H51.9612C47.8658 245.96 43.9382 244.333 41.0423 241.437C38.1463 238.541 36.5194 234.613 36.5193 230.518V34.8129C36.5197 30.7178 38.1467 26.7904 41.0425 23.8948C43.9383 20.9991 47.8657 19.3723 51.9609 19.3721H61.1874C60.734 20.4861 60.5614 21.6945 60.6846 22.891C60.8079 24.0874 61.2233 25.2352 61.8942 26.2334C62.5652 27.2317 63.4712 28.0497 64.5326 28.6156C65.5939 29.1815 66.778 29.4779 67.9808 29.4787H111.342C112.545 29.4778 113.729 29.1814 114.791 28.6155C115.852 28.0496 116.758 27.2315 117.429 26.2333C118.1 25.2351 118.515 24.0873 118.638 22.8909C118.761 21.6945 118.589 20.4861 118.135 19.3721H128.014C132.109 19.3722 136.037 20.9991 138.933 23.895C141.829 26.7909 143.456 30.7186 143.456 34.814V34.8129Z" fill="white"/>
<path d="M47.1344 38.8883C47.5586 38.8883 47.9025 38.5445 47.9025 38.1203C47.9025 37.6962 47.5586 37.3523 47.1344 37.3523C46.7103 37.3523 46.3664 37.6962 46.3664 38.1203C46.3664 38.5445 46.7103 38.8883 47.1344 38.8883Z" fill="#3F3D56"/>
<path d="M49.9505 38.8883C50.3747 38.8883 50.7186 38.5445 50.7186 38.1203C50.7186 37.6962 50.3747 37.3523 49.9505 37.3523C49.5264 37.3523 49.1825 37.6962 49.1825 38.1203C49.1825 38.5445 49.5264 38.8883 49.9505 38.8883Z" fill="#3F3D56"/>
<path d="M52.7669 38.8883C53.1911 38.8883 53.5349 38.5445 53.5349 38.1203C53.5349 37.6962 53.1911 37.3523 52.7669 37.3523C52.3428 37.3523 51.9989 37.6962 51.9989 38.1203C51.9989 38.5445 52.3428 38.8883 52.7669 38.8883Z" fill="#3F3D56"/>
<path d="M133.162 36.0723H125.225V37.0963H133.162V36.0723Z" fill="#3F3D56"/>
<path d="M133.162 37.6083H125.225V38.6323H133.162V37.6083Z" fill="#3F3D56"/>
<path d="M133.162 39.1447H125.225V40.1687H133.162V39.1447Z" fill="#3F3D56"/>
<path d="M92.4725 51.3645H53.5579C51.825 51.3665 50.1636 52.1627 48.938 53.5785C47.7124 54.9944 47.0226 56.9143 47.0201 58.9171V152.965H121.119V84.4741C121.11 75.696 118.089 67.2803 112.719 61.0732C107.349 54.8662 100.067 51.3746 92.4725 51.3645Z" fill="white"/>
<path d="M108.293 144.499H59.8463C59.4275 144.499 59.0259 144.701 58.7298 145.062C58.4336 145.423 58.2673 145.912 58.2673 146.423C58.2673 146.933 58.4336 147.423 58.7298 147.783C59.0259 148.144 59.4275 148.347 59.8463 148.347H108.293C108.712 148.347 109.113 148.144 109.409 147.783C109.706 147.423 109.872 146.933 109.872 146.423C109.872 145.912 109.706 145.423 109.409 145.062C109.113 144.701 108.712 144.499 108.293 144.499Z" fill="#E4E4E4"/>
<path d="M108.293 171.438H59.8463C59.4275 171.438 59.0259 171.641 58.7298 172.002C58.4336 172.363 58.2673 172.852 58.2673 173.362C58.2673 173.873 58.4336 174.362 58.7298 174.723C59.0259 175.084 59.4275 175.287 59.8463 175.287H108.293C108.712 175.287 109.113 175.084 109.409 174.723C109.706 174.362 109.872 173.873 109.872 173.362C109.872 172.852 109.706 172.363 109.409 172.002C109.113 171.641 108.712 171.438 108.293 171.438Z" fill="#E4E4E4"/>
<path d="M108.293 202.226H59.8463C59.4275 202.226 59.0259 202.429 58.7298 202.79C58.4336 203.151 58.2673 203.64 58.2673 204.15C58.2673 204.661 58.4336 205.15 58.7298 205.511C59.0259 205.872 59.4275 206.075 59.8463 206.075H108.293C108.712 206.075 109.113 205.872 109.409 205.511C109.706 205.15 109.872 204.661 109.872 204.15C109.872 203.64 109.706 203.151 109.409 202.79C109.113 202.429 108.712 202.226 108.293 202.226Z" fill="#E4E4E4"/>
<path d="M108.291 137.571H59.8478C59.4286 137.571 59.0266 137.774 58.7302 138.135C58.4338 138.496 58.2673 138.985 58.2673 139.495C58.2673 140.006 58.4338 140.495 58.7302 140.856C59.0266 141.217 59.4286 141.42 59.8478 141.42H108.291C108.711 141.42 109.113 141.217 109.409 140.856C109.705 140.495 109.872 140.006 109.872 139.495C109.872 138.985 109.705 138.496 109.409 138.135C109.113 137.774 108.711 137.571 108.291 137.571Z" fill="#E4E4E4"/>
<path d="M108.291 164.511H59.8478C59.4286 164.511 59.0266 164.713 58.7302 165.074C58.4338 165.435 58.2673 165.925 58.2673 166.435C58.2673 166.945 58.4338 167.435 58.7302 167.796C59.0266 168.157 59.4286 168.359 59.8478 168.359H108.291C108.711 168.359 109.113 168.157 109.409 167.796C109.705 167.435 109.872 166.945 109.872 166.435C109.872 165.925 109.705 165.435 109.409 165.074C109.113 164.713 108.711 164.511 108.291 164.511Z" fill="#E4E4E4"/>
<path d="M108.291 194.529H59.8478C59.4286 194.529 59.0266 194.732 58.7302 195.093C58.4338 195.454 58.2673 195.943 58.2673 196.453C58.2673 196.964 58.4338 197.453 58.7302 197.814C59.0266 198.175 59.4286 198.378 59.8478 198.378H108.291C108.711 198.378 109.113 198.175 109.409 197.814C109.705 197.453 109.872 196.964 109.872 196.453C109.872 195.943 109.705 195.454 109.409 195.093C109.113 194.732 108.711 194.529 108.291 194.529Z" fill="#E4E4E4"/>
<path d="M81.1465 129.874H59.8672C59.4429 129.874 59.0359 130.077 58.7359 130.438C58.4358 130.799 58.2673 131.288 58.2673 131.798C58.2673 132.309 58.4358 132.798 58.7359 133.159C59.0359 133.52 59.4429 133.723 59.8672 133.723H81.1465C81.5708 133.723 81.9778 133.52 82.2778 133.159C82.5779 132.798 82.7464 132.309 82.7464 131.798C82.7464 131.288 82.5779 130.799 82.2778 130.438C81.9778 130.077 81.5708 129.874 81.1465 129.874Z" fill="#E4E4E4"/>
<path d="M81.1465 156.814H59.8672C59.4429 156.814 59.0359 157.016 58.7359 157.377C58.4358 157.738 58.2673 158.228 58.2673 158.738C58.2673 159.248 58.4358 159.738 58.7359 160.099C59.0359 160.459 59.4429 160.662 59.8672 160.662H81.1465C81.5708 160.662 81.9778 160.459 82.2778 160.099C82.5779 159.738 82.7464 159.248 82.7464 158.738C82.7464 158.228 82.5779 157.738 82.2778 157.377C81.9778 157.016 81.5708 156.814 81.1465 156.814Z" fill="#E4E4E4"/>
<path d="M81.1465 187.602H59.8672C59.4429 187.602 59.0359 187.805 58.7359 188.165C58.4358 188.526 58.2673 189.016 58.2673 189.526C58.2673 190.036 58.4358 190.526 58.7359 190.887C59.0359 191.248 59.4429 191.45 59.8672 191.45H81.1465C81.5708 191.45 81.9778 191.248 82.2778 190.887C82.5779 190.526 82.7464 190.036 82.7464 189.526C82.7464 189.016 82.5779 188.526 82.2778 188.165C81.9778 187.805 81.5708 187.602 81.1465 187.602Z" fill="#E4E4E4"/>
<path d="M108.291 115.25H59.8478C59.4286 115.25 59.0266 115.412 58.7302 115.701C58.4338 115.989 58.2673 116.381 58.2673 116.789C58.2673 117.197 58.4338 117.589 58.7302 117.878C59.0266 118.166 59.4286 118.329 59.8478 118.329H108.291C108.711 118.329 109.113 118.166 109.409 117.878C109.705 117.589 109.872 117.197 109.872 116.789C109.872 116.381 109.705 115.989 109.409 115.701C109.113 115.412 108.711 115.25 108.291 115.25Z" fill="#E4E4E4"/>
<path d="M108.293 108.323H59.8463C59.4275 108.323 59.0259 108.485 58.7298 108.773C58.4336 109.062 58.2673 109.454 58.2673 109.862C58.2673 110.27 58.4336 110.662 58.7298 110.95C59.0259 111.239 59.4275 111.401 59.8463 111.401H108.293C108.712 111.401 109.113 111.239 109.409 110.95C109.706 110.662 109.872 110.27 109.872 109.862C109.872 109.454 109.706 109.062 109.409 108.773C109.113 108.485 108.712 108.323 108.293 108.323Z" fill="#E4E4E4"/>
<path d="M81.145 100.625H59.8686C59.4439 100.625 59.0366 100.828 58.7363 101.189C58.436 101.55 58.2673 102.039 58.2673 102.55C58.2673 103.06 58.436 103.55 58.7363 103.91C59.0366 104.271 59.4439 104.474 59.8686 104.474H81.145C81.5698 104.474 81.9771 104.271 82.2774 103.91C82.5777 103.55 82.7464 103.06 82.7464 102.55C82.7464 102.039 82.5777 101.55 82.2774 101.189C81.9771 100.828 81.5698 100.625 81.145 100.625Z" fill="#E4E4E4"/>
<path d="M108.291 85.2314H59.8478C59.4286 85.2314 59.0266 85.4342 58.7302 85.795C58.4338 86.1559 58.2673 86.6454 58.2673 87.1557C58.2673 87.666 58.4338 88.1555 58.7302 88.5164C59.0266 88.8772 59.4286 89.08 59.8478 89.08H108.291C108.711 89.08 109.113 88.8772 109.409 88.5164C109.705 88.1555 109.872 87.666 109.872 87.1557C109.872 86.6454 109.705 86.1559 109.409 85.795C109.113 85.4342 108.711 85.2314 108.291 85.2314Z" fill="#130160"/>
<path d="M108.291 78.3041H59.8478C59.4286 78.3041 59.0266 78.4663 58.7302 78.755C58.4338 79.0437 58.2673 79.4352 58.2673 79.8435C58.2673 80.2518 58.4338 80.6433 58.7302 80.932C59.0266 81.2207 59.4286 81.3829 59.8478 81.3829H108.291C108.711 81.3829 109.113 81.2207 109.409 80.932C109.705 80.6433 109.872 80.2518 109.872 79.8435C109.872 79.4352 109.705 79.0437 109.409 78.755C109.113 78.4663 108.711 78.3041 108.291 78.3041Z" fill="#130160"/>
<path d="M81.145 70.6071H59.8686C59.4439 70.6071 59.0366 70.8098 58.7363 71.1707C58.436 71.5315 58.2673 72.021 58.2673 72.5313C58.2673 73.0417 58.436 73.5311 58.7363 73.892C59.0366 74.2528 59.4439 74.4556 59.8686 74.4556H81.145C81.5698 74.4556 81.9771 74.2528 82.2774 73.892C82.5777 73.5311 82.7464 73.0417 82.7464 72.5313C82.7464 72.021 82.5777 71.5315 82.2774 71.1707C81.9771 70.8098 81.5698 70.6071 81.145 70.6071Z" fill="#130160"/>
<path d="M244.792 107.593L230.342 86.127L215.951 97.3959L229.543 107.937L232.336 141.614C231.475 142.52 230.897 143.655 230.672 144.882C230.448 146.11 230.586 147.375 231.071 148.525C231.556 149.675 232.367 150.66 233.403 151.359C234.44 152.058 235.659 152.442 236.911 152.462C238.163 152.483 239.393 152.141 240.453 151.477C241.513 150.813 242.356 149.856 242.88 148.723C243.403 147.59 243.584 146.329 243.401 145.095C243.218 143.861 242.679 142.707 241.849 141.773L244.792 107.593Z" fill="#FFB6B6"/>
<path d="M210.389 66.3413C218.033 64.9165 233.19 88.4582 233.19 88.4582C231.389 88.4966 245.285 102.445 243.805 103.119C239.6 105.035 229.574 106.531 228.02 109.117C227.13 110.596 218.268 100.53 218.268 100.53C218.268 100.53 212.73 95.2794 205.739 88.3839C203.726 86.471 202.231 84.0817 201.394 81.4385C200.558 78.7953 200.406 75.9842 200.953 73.2667C200.953 73.2667 202.744 67.7662 210.389 66.3413Z" fill="#130160"/>
<path d="M217.637 256.815L218.174 244.789C223.77 241.808 230.012 240.234 236.357 240.203C227.624 247.316 228.715 261.029 222.795 270.596C220.925 273.565 218.409 276.078 215.432 277.947C212.455 279.816 209.095 280.993 205.599 281.392L198.291 285.85C197.288 280.28 197.51 274.56 198.939 269.083C200.369 263.607 202.973 258.504 206.573 254.127C208.617 251.691 210.96 249.521 213.548 247.669C215.299 252.267 217.637 256.815 217.637 256.815Z" fill="#E6E1FF"/>
<path d="M198.807 279.662L192.189 279.661L189.041 254.23L198.808 254.23L198.807 279.662Z" fill="#FFB6B6"/>
<path d="M200.494 286.052L179.157 286.052V285.783C179.157 283.588 180.032 281.484 181.59 279.932C183.147 278.38 185.26 277.508 187.462 277.508H187.463L191.36 274.562L198.632 277.509L200.495 277.509L200.494 286.052Z" fill="#2F2E41"/>
<path d="M168.063 279.662L161.446 279.661L158.298 254.23L168.065 254.23L168.063 279.662Z" fill="#FFB6B6"/>
<path d="M169.751 286.052L148.414 286.052V285.783C148.414 283.588 149.289 281.484 150.846 279.932C152.404 278.38 154.516 277.508 156.719 277.508H156.719L160.617 274.562L167.889 277.509L169.751 277.509L169.751 286.052Z" fill="#2F2E41"/>
<path d="M165.199 140.627L208.242 141.699C216.416 146.123 216.541 155.698 213.862 167.066C213.862 167.066 214.766 173.823 212.958 175.625C211.149 177.427 210.245 177.427 211.149 180.58C212.054 183.733 207.276 188.883 207.857 189.462C208.437 190.04 209.793 193.193 209.793 193.193L205.272 218.869C205.272 218.869 202.107 263.464 201.203 264.365C200.299 265.266 199.395 264.365 200.299 266.617C201.203 268.87 202.107 267.969 201.203 268.87C200.402 269.73 199.647 270.632 198.942 271.573H188.012C188.012 271.573 187.188 267.068 187.188 266.617C187.188 266.167 186.283 263.464 186.283 263.014C186.283 262.563 187.083 261.767 187.083 261.767C187.359 260.851 187.545 259.911 187.64 258.96C187.64 258.059 190.352 223.374 190.352 223.374L184.927 178.328L171.816 222.473C171.816 222.473 171.816 261.212 170.912 262.113C170.007 263.014 170.007 262.563 170.46 264.365C170.912 266.167 172.72 265.717 171.364 267.068C170.007 268.419 169.555 266.167 170.007 268.419L170.46 270.672L156.896 270.865C156.896 270.865 155.088 267.068 155.992 265.717C156.896 264.365 156.842 264.734 155.739 262.523C154.636 260.311 154.184 259.861 154.636 259.41C155.088 258.96 155.088 256.564 155.088 256.564L157.348 213.463C157.348 213.463 157.8 167.967 157.8 166.616C157.835 165.921 157.706 165.227 157.425 164.589V162.755L159.157 156.255L165.199 140.627Z" fill="#69687F"/>
<path d="M191.055 51.4537C198.441 51.4537 204.429 45.488 204.429 38.129C204.429 30.7699 198.441 24.8042 191.055 24.8042C183.669 24.8042 177.682 30.7699 177.682 38.129C177.682 45.488 183.669 51.4537 191.055 51.4537Z" fill="#FFB6B6"/>
<path d="M184.369 60.2606C181.487 61.9672 179.764 65.1028 178.775 68.2937C176.943 74.2011 175.84 80.3088 175.491 86.4819L174.446 104.963L161.504 144.315C172.721 153.771 214.882 146.464 214.882 146.464C214.882 146.464 216.176 146.034 214.882 144.744C213.588 143.455 212.328 144.597 213.622 143.308C214.916 142.018 214.024 143.455 213.593 142.165C213.161 140.876 213.593 141.736 214.024 141.306C214.456 140.876 210.684 137.007 210.684 137.007L214.136 114.419L218.45 68.8571C213.273 62.4097 202.861 58.6089 202.861 58.6089L200.171 53.7843L186.72 54.8564L184.369 60.2606Z" fill="#130160"/>
<path d="M182.534 30.309C183.052 30.3131 183.567 30.3804 184.068 30.5095C185.055 30.7461 186.058 30.9137 187.069 31.011C190.165 31.3013 193.075 32.6168 195.332 34.7475C197.59 36.8783 199.066 39.7013 199.524 42.7658C200.301 42.0907 202.069 40.849 203.519 42.0031C203.541 42.0214 203.554 42.0308 203.605 42.0067C204.567 41.5518 206.276 35.9519 206.328 31.0213C206.355 28.4043 205.941 25.0625 203.817 24.0042L203.705 23.9485L203.676 23.8273C203.534 23.2386 201.948 22.2337 199.192 21.4516C194.184 20.0303 186.718 17.2615 182.515 21.3362C182.196 22.7099 181.161 25.6496 180.116 25.9828C178.958 26.3516 177.958 26.6699 177.8 28.0849C177.669 30.0986 177.678 32.119 177.829 34.1314C178.221 32.9 178.991 31.8222 180.031 31.0498C180.77 30.5541 181.643 30.2956 182.534 30.309Z" fill="#2F2E41"/>
<path d="M157.642 103.934L179.488 89.9945L168.485 75.4213L157.62 88.7372L123.767 90.8059C122.877 89.9289 121.75 89.3291 120.523 89.0794C119.297 88.8298 118.023 88.9411 116.859 89.3998C115.695 89.8586 114.69 90.645 113.966 91.663C113.243 92.6811 112.832 93.8869 112.785 95.1334C112.737 96.38 113.055 97.6133 113.699 98.6831C114.343 99.753 115.285 100.613 116.411 101.158C117.537 101.704 118.798 101.911 120.04 101.755C121.282 101.599 122.452 101.086 123.406 100.279L157.642 103.934Z" fill="#FFB6B6"/>
<path d="M199.764 70.5379C201.032 78.1831 177.088 92.7822 177.088 92.7822C177.088 90.9878 162.797 104.535 162.152 103.047C160.319 98.8168 159.03 88.7984 156.468 87.1949C155.003 86.2778 165.291 77.6632 165.291 77.6632C165.291 77.6632 170.677 72.2575 177.744 65.4391C179.706 63.4745 182.135 62.0365 184.805 61.2589C187.475 60.4813 190.299 60.3894 193.015 60.9918C193.015 60.9918 198.496 62.8926 199.764 70.5379Z" fill="#130160"/>
<path d="M248.483 286.159C248.484 286.242 248.467 286.326 248.435 286.403C248.403 286.481 248.356 286.551 248.296 286.61C248.237 286.67 248.166 286.717 248.088 286.748C248.011 286.78 247.927 286.797 247.843 286.797H97.0373C96.8675 286.797 96.7046 286.729 96.5845 286.61C96.4645 286.49 96.397 286.328 96.397 286.159C96.397 285.989 96.4645 285.827 96.5845 285.707C96.7046 285.588 96.8675 285.521 97.0373 285.521H247.843C247.927 285.52 248.011 285.537 248.088 285.569C248.166 285.601 248.237 285.648 248.296 285.707C248.356 285.766 248.403 285.837 248.435 285.914C248.467 285.992 248.484 286.075 248.483 286.159Z" fill="#130160"/>
<circle cx="25.2056" cy="25.2056" r="25.2056" fill="#FCA34D"/>
<path d="M33.0081 31.8289L36.2702 35.0893C36.4223 35.2468 36.5065 35.4578 36.5046 35.6767C36.5027 35.8957 36.4149 36.1052 36.26 36.26C36.1052 36.4149 35.8957 36.5027 35.6768 36.5046C35.4578 36.5065 35.2468 36.4223 35.0893 36.2702L31.8272 33.0081C29.6955 34.8345 26.9393 35.7642 24.1369 35.6022C21.3345 35.4402 18.7037 34.1991 16.7967 32.1393C14.8896 30.0794 13.8545 27.361 13.9085 24.5545C13.9626 21.7479 15.1015 19.0713 17.0864 17.0864C19.0714 15.1015 21.7479 13.9625 24.5545 13.9085C27.3611 13.8545 30.0795 14.8896 32.1393 16.7967C34.1991 18.7037 35.4403 21.3345 35.6023 24.1369C35.7642 26.9393 34.8345 29.6955 33.0081 31.8272V31.8289ZM24.7636 33.9502C27.2 33.9502 29.5367 32.9823 31.2595 31.2595C32.9823 29.5366 33.9502 27.2 33.9502 24.7635C33.9502 22.3271 32.9823 19.9904 31.2595 18.2676C29.5367 16.5448 27.2 15.5769 24.7636 15.5769C22.3271 15.5769 19.9905 16.5448 18.2677 18.2676C16.5448 19.9904 15.577 22.3271 15.577 24.7635C15.577 27.2 16.5448 29.5366 18.2677 31.2595C19.9905 32.9823 22.3271 33.9502 24.7636 33.9502Z" fill="white"/>
</svg>
